<svg width="60" height="58" viewBox="0 0 60 58" fill="none" xmlns="http://www.w3.org/2000/svg"><mask id="a" maskUnits="userSpaceOnUse" x="7.304" y="5.646" width="45" height="47" fill="#000"><path fill="#fff" d="M7.304 5.646h45v47h-45z"/><path fill-rule="evenodd" clip-rule="evenodd" d="M42.426 8.914a.884.884 0 0 0-1.22.408l-5.188 11.255a9.194 9.194 0 0 1 1.701-.615l5.075-9.866a.884.884 0 0 0-.368-1.182Zm-3.273 10.803 4.675-9.089a2.046 2.046 0 1 0-3.678-1.792l-5.818 12.621a9.122 9.122 0 0 0-4.703-1.297 9.127 9.127 0 0 0-5.86 2.118l-.414-3.151a.582.582 0 0 0-.657-.5l-10.182 1.417a.581.581 0 0 0-.494.663l.448 2.926-1.987.468a.582.582 0 0 0-.431.707l1.11 4.442h-.986a.872.872 0 0 0-.872.872c0 3.643.296 7.195 1.942 10.117 1.601 2.844 4.402 4.966 9.06 6.116v.863c0 1.312.925 2.486 2.287 2.673 1.516.209 4.076.463 7.55.463 3.42 0 5.858-.246 7.306-.454 1.35-.193 2.244-1.36 2.244-2.65v-.895c4.66-1.15 7.46-3.272 9.06-6.116 1.647-2.922 1.943-6.474 1.943-10.117a.872.872 0 0 0-.872-.872h-.566a9.263 9.263 0 0 0-5.391-8.73l5.067-5.354a1.96 1.96 0 1 0-2.904-2.631l-6.2 7.145a9.36 9.36 0 0 0-.677.037Zm8.748 9.533a7.907 7.907 0 0 0-5.029-7.678l-1.325 1.4a6.601 6.601 0 0 1 1.623.724c1.096.686 1.994 1.744 2.272 3.193.146.763.17 1.568.072 2.361h2.387Zm-2.818 1.744h2.554a7.908 7.908 0 0 1-11.538 4.82 9.204 9.204 0 0 0 1.368-1.74 4.752 4.752 0 0 0 2.418.637c2.178 0 3.751-1.112 4.679-2.648.204-.338.377-.697.52-1.069Zm-.546-1.744a6.66 6.66 0 0 0-.047-2.179c-.217-1.131-.916-1.979-1.834-2.553a5.78 5.78 0 0 0-1.872-.74l-1.646 1.74.195.006c1.06.048 1.87.374 2.436.893.565.518.85 1.19.927 1.86a3.5 3.5 0 0 1-.025.973h1.866Zm-2.745 1.744h2.241c-.089.196-.189.386-.299.568-.773 1.281-2.05 2.18-3.849 2.18-.743 0-1.4-.196-1.957-.525.327-.697.57-1.443.713-2.223h.33c.524.46 1.293.707 2.131.42.26-.088.49-.235.69-.42Zm-.108-1.744h-2.396a.663.663 0 0 1 .266-.26.484.484 0 1 0-.487-.838c-.12.07-.227.15-.321.236a9.117 9.117 0 0 0-.386-1.855c.28-.041.59-.056.929-.041.882.04 1.459.304 1.825.64.368.337.565.782.62 1.256.033.29.013.586-.05.862Zm-4.054 0h-1.757c.042-.674.262-1.29.655-1.761.188-.225.423-.426.711-.588l.017-.002c.236.743.366 1.532.374 2.351Zm-1.496 1.744h1.322a7.938 7.938 0 0 1-.459 1.455 4.455 4.455 0 0 1-.863-1.455Zm-1.396-1.744a4.757 4.757 0 0 0-.36-1.441c-.338-.812-.887-1.56-1.56-2.173a7.85 7.85 0 0 0-.619 2.033c.098.133.186.27.262.412.192.36.318.765.326 1.169h1.951Zm-2.37 1.744h2.143a4.725 4.725 0 0 1-.649 1.208 3.948 3.948 0 0 1-.685.727 7.856 7.856 0 0 1-.81-1.935Zm-2.693-1.744a.482.482 0 0 0-.648 0h-1.92c.137-.275.32-.56.554-.85.554-.689 1.108-.998 1.595-1.095.49-.098.965.007 1.38.243.066.037.13.077.191.12a9.35 9.35 0 0 0-.081 1.582h-1.07Zm-2.885 1.744h2.67c.302.232.677.35 1.049.371.177.01.36-.002.543-.038.212.8.53 1.557.936 2.256-1.175.392-2.494.203-3.535-.393-.825-.472-1.42-1.173-1.619-1.974a2.52 2.52 0 0 1-.044-.222Zm-.74-1.744a5.38 5.38 0 0 1 .856-1.458c.666-.827 1.407-1.287 2.16-1.438a2.934 2.934 0 0 1 1.959.302 9.2 9.2 0 0 1 .683-1.842 6.32 6.32 0 0 0-.505-.269c-1.042-.493-2.139-.43-3.145-.029a5.915 5.915 0 0 0-2.5 1.951.484.484 0 1 1-.781-.572 6.882 6.882 0 0 1 2.922-2.278c1.202-.48 2.586-.58 3.919.053.192.091.382.192.567.3a9.306 9.306 0 0 1 1.331-1.641 7.966 7.966 0 0 0-3.887-1.006 7.977 7.977 0 0 0-5.676 2.361l.732 5.566h1.365Zm-1.136 1.744h.899c.017.154.044.306.081.455.277 1.115 1.08 2.011 2.078 2.582 1.305.747 3.039.985 4.563.388a9.319 9.319 0 0 0 1.488 1.593 7.965 7.965 0 0 1-4.394 1.314 7.999 7.999 0 0 1-6.96-4.053l1.937-.33a.581.581 0 0 0 .479-.65l-.171-1.299Zm-13.315 0 1.288 5.154a.582.582 0 0 0 .715.421l8.303-2.228a.623.623 0 0 0 .044-.014 9.156 9.156 0 0 0 7.68 4.162 9.123 9.123 0 0 0 5.382-1.747 9.217 9.217 0 0 0 4.991 1.459c4.27 0 7.864-2.89 8.936-6.82-.074 3.087-.462 5.798-1.704 8.002-1.375 2.443-3.88 4.398-8.599 5.427a.872.872 0 0 0-.686.852v1.588c0 .497-.329.864-.748.924-1.367.196-3.722.436-7.058.436-3.389 0-5.87-.248-7.313-.447-.437-.06-.78-.442-.78-.945v-1.556a.872.872 0 0 0-.685-.852c-4.718-1.029-7.224-2.984-8.6-5.427-1.293-2.296-1.66-5.142-1.71-8.389h.544ZM36.826 21.7c-.43.189-.84.415-1.226.674.206.177.404.362.593.557l.633-1.231Zm-3.535 3.062c.138-.22.286-.434.444-.64.166.383.47.706.882.887.289.128.595.17.888.135a1.624 1.624 0 0 0 .593 1.396 3.595 3.595 0 0 0-.77 1.03 6.667 6.667 0 0 0-.055-.133c-.427-1.023-1.13-1.945-1.982-2.675Zm2.034 6.816c.276.66.684 1.279 1.21 1.79a8.034 8.034 0 0 1-1.422 1.784 7.951 7.951 0 0 1-1.392-1.412c.334-.264.645-.584.923-.964.288-.393.513-.794.68-1.198Zm4.28-8.892c.192 0 .389.009.588.027l1.43-1.51a7.923 7.923 0 0 0-1.43-.165l-2.87 3.307c.182.28.349.572.5.872l1.54-1.627a.484.484 0 0 1 .242-.904Zm3.084-2.61 5.4-5.708a.797.797 0 1 0-1.18-1.07l-5.615 6.47c.478.067.943.17 1.395.307Zm-4.151 1.095-.325.375.178-.346.147-.029Zm-2.992 2.768a8.05 8.05 0 0 0-.745-.72.554.554 0 0 0 .745.72Z"/></mask><path fill-rule="evenodd" clip-rule="evenodd" d="M42.426 8.914a.884.884 0 0 0-1.22.408l-5.188 11.255a9.194 9.194 0 0 1 1.701-.615l5.075-9.866a.884.884 0 0 0-.368-1.182Zm-3.273 10.803 4.675-9.089a2.046 2.046 0 1 0-3.678-1.792l-5.818 12.621a9.122 9.122 0 0 0-4.703-1.297 9.127 9.127 0 0 0-5.86 2.118l-.414-3.151a.582.582 0 0 0-.657-.5l-10.182 1.417a.581.581 0 0 0-.494.663l.448 2.926-1.987.468a.582.582 0 0 0-.431.707l1.11 4.442h-.986a.872.872 0 0 0-.872.872c0 3.643.296 7.195 1.942 10.117 1.601 2.844 4.402 4.966 9.06 6.116v.863c0 1.312.925 2.486 2.287 2.673 1.516.209 4.076.463 7.55.463 3.42 0 5.858-.246 7.306-.454 1.35-.193 2.244-1.36 2.244-2.65v-.895c4.66-1.15 7.46-3.272 9.06-6.116 1.647-2.922 1.943-6.474 1.943-10.117a.872.872 0 0 0-.872-.872h-.566a9.263 9.263 0 0 0-5.391-8.73l5.067-5.354a1.96 1.96 0 1 0-2.904-2.631l-6.2 7.145a9.36 9.36 0 0 0-.677.037Zm8.748 9.533a7.907 7.907 0 0 0-5.029-7.678l-1.325 1.4a6.601 6.601 0 0 1 1.623.724c1.096.686 1.994 1.744 2.272 3.193.146.763.17 1.568.072 2.361h2.387Zm-2.818 1.744h2.554a7.908 7.908 0 0 1-11.538 4.82 9.204 9.204 0 0 0 1.368-1.74 4.752 4.752 0 0 0 2.418.637c2.178 0 3.751-1.112 4.679-2.648.204-.338.377-.697.52-1.069Zm-.546-1.744a6.66 6.66 0 0 0-.047-2.179c-.217-1.131-.916-1.979-1.834-2.553a5.78 5.78 0 0 0-1.872-.74l-1.646 1.74.195.006c1.06.048 1.87.374 2.436.893.565.518.85 1.19.927 1.86a3.5 3.5 0 0 1-.025.973h1.866Zm-2.745 1.744h2.241c-.089.196-.189.386-.299.568-.773 1.281-2.05 2.18-3.849 2.18-.743 0-1.4-.196-1.957-.525.327-.697.57-1.443.713-2.223h.33c.524.46 1.293.707 2.131.42.26-.088.49-.235.69-.42Zm-.108-1.744h-2.396a.663.663 0 0 1 .266-.26.484.484 0 1 0-.487-.838c-.12.07-.227.15-.321.236a9.117 9.117 0 0 0-.386-1.855c.28-.041.59-.056.929-.041.882.04 1.459.304 1.825.64.368.337.565.782.62 1.256.033.29.013.586-.05.862Zm-4.054 0h-1.757c.042-.674.262-1.29.655-1.761.188-.225.423-.426.711-.588l.017-.002c.236.743.366 1.532.374 2.351Zm-1.496 1.744h1.322a7.938 7.938 0 0 1-.459 1.455 4.455 4.455 0 0 1-.863-1.455Zm-1.396-1.744a4.757 4.757 0 0 0-.36-1.441c-.338-.812-.887-1.56-1.56-2.173a7.85 7.85 0 0 0-.619 2.033c.098.133.186.27.262.412.192.36.318.765.326 1.169h1.951Zm-2.37 1.744h2.143a4.725 4.725 0 0 1-.649 1.208 3.948 3.948 0 0 1-.685.727 7.856 7.856 0 0 1-.81-1.935Zm-2.693-1.744a.482.482 0 0 0-.648 0h-1.92c.137-.275.32-.56.554-.85.554-.689 1.108-.998 1.595-1.095.49-.098.965.007 1.38.243.066.037.13.077.191.12a9.35 9.35 0 0 0-.081 1.582h-1.07Zm-2.885 1.744h2.67c.302.232.677.35 1.049.371.177.01.36-.002.543-.038.212.8.53 1.557.936 2.256-1.175.392-2.494.203-3.535-.393-.825-.472-1.42-1.173-1.619-1.974a2.52 2.52 0 0 1-.044-.222Zm-.74-1.744a5.38 5.38 0 0 1 .856-1.458c.666-.827 1.407-1.287 2.16-1.438a2.934 2.934 0 0 1 1.959.302 9.2 9.2 0 0 1 .683-1.842 6.32 6.32 0 0 0-.505-.269c-1.042-.493-2.139-.43-3.145-.029a5.915 5.915 0 0 0-2.5 1.951.484.484 0 1 1-.781-.572 6.882 6.882 0 0 1 2.922-2.278c1.202-.48 2.586-.58 3.919.053.192.091.382.192.567.3a9.306 9.306 0 0 1 1.331-1.641 7.966 7.966 0 0 0-3.887-1.006 7.977 7.977 0 0 0-5.676 2.361l.732 5.566h1.365Zm-1.136 1.744h.899c.017.154.044.306.081.455.277 1.115 1.08 2.011 2.078 2.582 1.305.747 3.039.985 4.563.388a9.319 9.319 0 0 0 1.488 1.593 7.965 7.965 0 0 1-4.394 1.314 7.999 7.999 0 0 1-6.96-4.053l1.937-.33a.581.581 0 0 0 .479-.65l-.171-1.299Zm-13.315 0 1.288 5.154a.582.582 0 0 0 .715.421l8.303-2.228a.623.623 0 0 0 .044-.014 9.156 9.156 0 0 0 7.68 4.162 9.123 9.123 0 0 0 5.382-1.747 9.217 9.217 0 0 0 4.991 1.459c4.27 0 7.864-2.89 8.936-6.82-.074 3.087-.462 5.798-1.704 8.002-1.375 2.443-3.88 4.398-8.599 5.427a.872.872 0 0 0-.686.852v1.588c0 .497-.329.864-.748.924-1.367.196-3.722.436-7.058.436-3.389 0-5.87-.248-7.313-.447-.437-.06-.78-.442-.78-.945v-1.556a.872.872 0 0 0-.685-.852c-4.718-1.029-7.224-2.984-8.6-5.427-1.293-2.296-1.66-5.142-1.71-8.389h.544ZM36.826 21.7c-.43.189-.84.415-1.226.674.206.177.404.362.593.557l.633-1.231Zm-3.535 3.062c.138-.22.286-.434.444-.64.166.383.47.706.882.887.289.128.595.17.888.135a1.624 1.624 0 0 0 .593 1.396 3.595 3.595 0 0 0-.77 1.03 6.667 6.667 0 0 0-.055-.133c-.427-1.023-1.13-1.945-1.982-2.675Zm2.034 6.816c.276.66.684 1.279 1.21 1.79a8.034 8.034 0 0 1-1.422 1.784 7.951 7.951 0 0 1-1.392-1.412c.334-.264.645-.584.923-.964.288-.393.513-.794.68-1.198Zm4.28-8.892c.192 0 .389.009.588.027l1.43-1.51a7.923 7.923 0 0 0-1.43-.165l-2.87 3.307c.182.28.349.572.5.872l1.54-1.627a.484.484 0 0 1 .242-.904Zm3.084-2.61 5.4-5.708a.797.797 0 1 0-1.18-1.07l-5.615 6.47c.478.067.943.17 1.395.307Zm-4.151 1.095-.325.375.178-.346.147-.029Zm-2.992 2.768a8.05 8.05 0 0 0-.745-.72.554.554 0 0 0 .745.72Z" fill="#F8F9FA"/><path d="m41.206 9.322 1.362.628-1.362-.628Zm1.22-.408.708-1.322-.708 1.322Zm-6.408 11.663-1.362-.628a1.5 1.5 0 0 0 2.008 1.981l-.646-1.353Zm1.701-.615.37 1.454a1.5 1.5 0 0 0 .964-.768l-1.334-.686Zm5.075-9.866 1.334.687-1.334-.687Zm1.034.532-1.334-.686 1.334.686Zm-4.675 9.089-1.334-.686a1.5 1.5 0 0 0 1.47 2.18l-.136-1.494Zm3.822-11.828.709-1.322-.71 1.322Zm-2.825.947-1.362-.628 1.362.628Zm-5.818 12.621-.771 1.287a1.5 1.5 0 0 0 2.133-.659l-1.362-.628Zm-10.563.821-1.488.196a1.5 1.5 0 0 0 2.447.957l-.96-1.153Zm-.414-3.151-1.488.195 1.488-.195Zm-.225-.387.91-1.193-.91 1.193Zm-.432-.113.207 1.486-.207-1.486Zm-10.182 1.417.207 1.485-.207-1.485Zm-.494.663 1.483-.227-1.483.227Zm.448 2.926.344 1.46a1.5 1.5 0 0 0 1.14-1.687l-1.484.227Zm-1.987.468-.344-1.46.344 1.46Zm-.363.263 1.28.78-1.28-.78Zm-.068.444 1.455-.364-1.455.364Zm1.11 4.442v1.5a1.5 1.5 0 0 0 1.456-1.864l-1.455.364Zm.084 10.99-1.307.735 1.307-.736Zm9.06 6.115h1.5a1.5 1.5 0 0 0-1.14-1.457l-.36 1.457Zm2.287 3.536.204-1.486-.204 1.486Zm14.856.009-.213-1.485.213 1.485Zm2.244-3.545-.36-1.457a1.5 1.5 0 0 0-1.14 1.457h1.5Zm9.06-6.116 1.308.736-1.307-.736Zm.505-10.989-1.5-.05a1.5 1.5 0 0 0 1.5 1.55v-1.5Zm-5.391-8.73-1.09-1.03a1.5 1.5 0 0 0 .463 2.394l.627-1.363Zm5.067-5.354 1.09 1.031-1.09-1.031Zm-.11-2.801 1.006-1.113-1.006 1.113Zm-2.794.17-1.133-.983 1.133.983Zm-6.2 7.145.028 1.5a1.5 1.5 0 0 0 1.106-.517l-1.133-.983Zm8.07 9.57v1.5a1.5 1.5 0 0 0 1.5-1.442l-1.5-.058Zm-5.028-7.678.545-1.398a1.5 1.5 0 0 0-1.635.367l1.09 1.031Zm-1.325 1.4-1.09-1.03a1.5 1.5 0 0 0 .664 2.468l.426-1.438Zm1.623.724.795-1.272-.795 1.272Zm2.272 3.193 1.473-.283-1.473.283Zm.072 2.361-1.489-.185a1.5 1.5 0 0 0 1.49 1.685v-1.5Zm2.123 1.744 1.449.389a1.5 1.5 0 0 0-1.45-1.889v1.5Zm-2.554 0v-1.5a1.5 1.5 0 0 0-1.401.965l1.401.535Zm-8.984 4.82-1.06-1.062a1.5 1.5 0 0 0 .318 2.366l.742-1.303Zm1.368-1.74.754-1.296a1.5 1.5 0 0 0-2.036.518l1.282.779Zm7.097-2.011 1.284.775-1.284-.775Zm-.074-4.992 1.474-.282-1.474.282Zm.047 2.179v1.5a1.5 1.5 0 0 0 1.485-1.288l-1.485-.212Zm-1.881-4.732-.795 1.271.795-1.271Zm-1.872-.74.306-1.468a1.5 1.5 0 0 0-1.395.438l1.09 1.03Zm-1.646 1.74-1.09-1.031a1.5 1.5 0 0 0 1.067 2.53l.023-1.499Zm.195.006-.068 1.498.068-1.498Zm2.436.893-1.013 1.106 1.013-1.106Zm.927 1.86-1.49.173 1.49-.173Zm-.025.973-1.48-.245a1.5 1.5 0 0 0 1.48 1.745v-1.5Zm1.362 1.744 1.365.622a1.5 1.5 0 0 0-1.365-2.122v1.5Zm-2.241 0v-1.5a1.5 1.5 0 0 0-1.021.4l1.02 1.1Zm1.942.568 1.285.775-1.285-.775Zm-5.806 1.655-1.358-.638a1.5 1.5 0 0 0 .594 1.93l.764-1.292Zm.713-2.223v-1.5a1.5 1.5 0 0 0-1.475 1.229l1.475.271Zm.33 0 .991-1.126a1.5 1.5 0 0 0-.99-.374v1.5Zm2.131.42-.485-1.418.485 1.419Zm-1.814-2.164-1.328-.698a1.5 1.5 0 0 0 1.328 2.198v-1.5Zm2.396 0v1.5a1.5 1.5 0 0 0 1.462-1.163l-1.462-.337Zm-2.13-.26.753 1.297-.753-1.297Zm.176-.663 1.297-.753-1.297.753Zm-.663-.175.754 1.297-.754-1.297Zm-.321.236-1.493.152a1.5 1.5 0 0 0 2.515.946l-1.022-1.098Zm-.386-1.855-.219-1.484a1.5 1.5 0 0 0-1.21 1.94l1.43-.456Zm.929-.041.067-1.499-.067 1.499Zm1.825.64 1.014-1.107-1.014 1.107Zm.62 1.256-1.49.173 1.49-.172Zm-5.861.862-1.497-.094a1.5 1.5 0 0 0 1.497 1.594v-1.5Zm1.757 0v1.5a1.5 1.5 0 0 0 1.5-1.514l-1.5.014Zm-1.102-1.761-1.152-.961 1.152.96Zm.711-.588-.112-1.496c-.219.016-.431.08-.622.188l.734 1.308Zm.017-.002 1.43-.454a1.5 1.5 0 0 0-1.542-1.041l.112 1.495Zm.2 4.095 1.467.312a1.5 1.5 0 0 0-1.467-1.812v1.5Zm-1.322 0v-1.5a1.5 1.5 0 0 0-1.41 2.01l1.41-.51Zm.863 1.455-1.117 1a1.5 1.5 0 0 0 2.498-.413l-1.381-.587Zm-2.618-4.64-1.384.578 1.384-.578Zm.36 1.441v1.5a1.5 1.5 0 0 0 1.494-1.623l-1.495.123Zm-1.92-3.614 1.01-1.108a1.5 1.5 0 0 0-2.373.48l1.363.628Zm-.62 2.033-1.48-.24a1.5 1.5 0 0 0 .275 1.132l1.205-.892Zm.262.412-1.323.707 1.323-.707Zm.326 1.169-1.5.029a1.5 1.5 0 0 0 1.5 1.471v-1.5Zm1.724 1.744 1.413.503a1.5 1.5 0 0 0-1.413-2.003v1.5Zm-2.144 0v-1.5a1.5 1.5 0 0 0-1.449 1.889l1.45-.389Zm1.495 1.208-1.21-.886 1.21.886Zm-.685.727-1.295.758a1.5 1.5 0 0 0 2.244.403l-.95-1.16Zm-3.502-3.679-1.004 1.114a1.5 1.5 0 0 0 1.005.386v-1.5Zm-.272-.122.159-1.491-.16 1.491Zm-.376.122v1.5a1.5 1.5 0 0 0 1.003-.385l-1.003-1.115Zm-1.92 0-1.342-.672a1.5 1.5 0 0 0 1.342 2.172v-1.5Zm.554-.85 1.17.94-1.17-.94Zm1.595-1.095-.293-1.471.293 1.47Zm1.38.243-.74 1.304.74-1.304Zm.191.12 1.486.204a1.5 1.5 0 0 0-.627-1.433l-.859 1.23Zm-.081 1.582v1.5a1.5 1.5 0 0 0 1.5-1.55l-1.5.05Zm-1.287 1.744.913-1.19a1.5 1.5 0 0 0-.913-.31v1.5Zm-2.669 0v-1.5a1.5 1.5 0 0 0-1.483 1.728l1.483-.228Zm3.719.371-.084 1.498.084-1.498Zm.543-.038 1.45-.386a1.5 1.5 0 0 0-1.737-1.086l.287 1.472Zm.936 2.256.474 1.423a1.5 1.5 0 0 0 .823-2.176l-1.297.754Zm-3.535-.393.745-1.302-.745 1.302Zm-1.619-1.974-1.456.36 1.456-.36Zm.072-3.424 1.17.94-1.17-.94Zm-.856 1.458v1.5a1.5 1.5 0 0 0 1.403-.969l-1.403-.531Zm3.017-2.896.293 1.471-.293-1.47Zm1.958.302-.7 1.326a1.5 1.5 0 0 0 2.154-.958l-1.454-.368Zm.683-1.842 1.343.67a1.5 1.5 0 0 0-.58-1.962l-.763 1.292Zm-.505-.269-.643 1.356.643-1.356Zm-3.145-.029-.555-1.393.555 1.393Zm-2.5 1.951-1.21-.886 1.21.886Zm-.677.105.887-1.21-.887 1.21Zm-.104-.677 1.21.886-1.21-.886Zm2.922-2.279.556 1.394-.556-1.394Zm3.919.054-.643 1.355.643-1.355Zm.567.3-.76 1.294a1.5 1.5 0 0 0 2.025-.488l-1.265-.805Zm1.331-1.641 1.05 1.07a1.5 1.5 0 0 0-.32-2.38l-.73 1.31Zm-9.563 1.355-1.064-1.057a1.5 1.5 0 0 0-.423 1.252l1.487-.195Zm.732 5.566-1.487.195a1.5 1.5 0 0 0 1.487 1.305v-1.5Zm1.128 1.744 1.49-.165a1.5 1.5 0 0 0-1.49-1.335v1.5Zm-.9 0v-1.5a1.5 1.5 0 0 0-1.486 1.695l1.487-.195Zm.981.455 1.456-.361-1.456.361Zm2.078 2.582-.745 1.302.745-1.302Zm4.563.388 1.209-.889a1.5 1.5 0 0 0-1.756-.508l.547 1.397Zm1.488 1.593.825 1.253a1.5 1.5 0 0 0 .144-2.398l-.969 1.145Zm-11.355-2.739-.253-1.478a1.5 1.5 0 0 0-1.05 2.22l1.303-.742Zm1.938-.33.253 1.478-.253-1.479Zm.479-.65 1.487-.195-1.487.195Zm-12.198 3.855 1.455-.363-1.455.363ZM11.6 30.994l1.455-.364a1.5 1.5 0 0 0-1.455-1.136v1.5Zm1.557 5.514.761-1.292-.76 1.292Zm.446.06.389 1.45-.39-1.45Zm8.303-2.227.389 1.449-.389-1.449Zm.044-.014 1.256-.82a1.5 1.5 0 0 0-1.757-.593l.502 1.413Zm13.062 2.415.81-1.263a1.5 1.5 0 0 0-1.692.05l.882 1.213Zm13.927-5.361 1.5.036a1.5 1.5 0 0 0-2.947-.43l1.447.394Zm-1.704 8.002 1.307.737-1.307-.736Zm-8.599 5.427.32 1.466-.32-1.466Zm-1.434 3.364-.213-1.485.213 1.485Zm-14.37-.01-.205 1.485.204-1.486Zm-1.466-3.354.32-1.465-.32 1.465Zm-8.6-5.427-1.306.737 1.307-.736Zm-1.71-8.389v-1.5a1.5 1.5 0 0 0-1.5 1.524l1.5-.024ZM35.6 22.373l-.836-1.245a1.5 1.5 0 0 0-.142 2.382l.978-1.137Zm1.226-.674 1.334.686a1.5 1.5 0 0 0-1.937-2.06l.603 1.374Zm-.633 1.23-1.074 1.047a1.5 1.5 0 0 0 2.408-.36l-1.334-.686Zm-2.458 1.193 1.376-.598a1.5 1.5 0 0 0-2.565-.318l1.189.916Zm-.444.639-1.272-.794a1.5 1.5 0 0 0 .296 1.933l.976-1.14Zm1.326.247.605-1.372-.605 1.372Zm.888.135 1.495.123a1.5 1.5 0 0 0-1.667-1.613l.172 1.49Zm.593 1.395 1.016 1.104a1.5 1.5 0 0 0-.069-2.267l-.947 1.163Zm-.314.33 1.152.961-1.152-.96Zm-.457.702-1.397.545a1.5 1.5 0 0 0 2.74.123l-1.343-.668Zm-.054-.134-1.384.578 1.384-.578Zm1.263 5.93 1.293.76a1.5 1.5 0 0 0-.25-1.836l-1.043 1.077Zm-1.211-1.79 1.383-.58a1.5 1.5 0 0 0-2.768.005l1.385.576Zm-.212 3.575-.929 1.178a1.5 1.5 0 0 0 1.957-.086l-1.028-1.092Zm-1.392-1.412-.93-1.177a1.5 1.5 0 0 0-.262 2.088l1.191-.911Zm.923-.964-1.21-.886 1.21.886Zm5.549-10.063-.136 1.494a1.5 1.5 0 0 0 1.225-.463l-1.09-1.031Zm1.43-1.51 1.089 1.03a1.5 1.5 0 0 0-.784-2.5l-.306 1.47Zm-1.43-.165.035-1.5a1.5 1.5 0 0 0-1.168.517l1.133.983Zm-2.87 3.307-1.133-.983a1.5 1.5 0 0 0-.125 1.8l1.258-.817Zm.5.872-1.34.674a1.5 1.5 0 0 0 2.43.357l-1.09-1.03Zm1.54-1.627 1.09 1.031a1.5 1.5 0 0 0-.34-2.33l-.75 1.299Zm8.726-9.222L47 13.336l1.09 1.03Zm-5.4 5.707-.435 1.436a1.5 1.5 0 0 0 1.524-.405l-1.09-1.03Zm5.356-6.846-1.006 1.113 1.006-1.113Zm-1.137.069 1.133.983-1.133-.983Zm-5.614 6.47-1.133-.982a1.5 1.5 0 0 0 .926 2.468l.207-1.485Zm-3.081 1.778-1.334-.686a1.5 1.5 0 0 0 2.467 1.669l-1.133-.983Zm.325-.375 1.133.983a1.5 1.5 0 0 0-1.41-2.457l.277 1.474Zm-.147.03-.305-1.47a1.5 1.5 0 0 0-1.03.783l1.335.686Zm-3.59 2.019.97-1.144a1.5 1.5 0 0 0-2.348.55l1.378.594Zm.745.72.641 1.355a1.5 1.5 0 0 0 .468-2.366l-1.109 1.01Zm-.46.005-.605 1.373.605-1.373ZM42.568 9.95a.617.617 0 0 1-.851.286l1.417-2.644a2.383 2.383 0 0 0-3.29 1.103l2.724 1.255Zm-5.187 11.255L42.568 9.95l-2.724-1.255-5.188 11.254 2.725 1.255Zm-.03-2.697c-.688.174-1.35.415-1.979.715l1.292 2.707a7.696 7.696 0 0 1 1.424-.514l-.737-2.908ZM41.46 9.41l-5.074 9.866 2.667 1.372 5.075-9.865L41.46 9.41Zm.257.826a.617.617 0 0 1-.257-.826l2.668 1.373a2.383 2.383 0 0 0-.994-3.191l-1.417 2.644Zm.777-.294-4.675 9.089 2.668 1.372 4.675-9.089-2.668-1.372Zm-.228-.731c.263.14.364.466.228.731l2.668 1.372a3.546 3.546 0 0 0-1.478-4.747L42.266 9.21Zm-.754.253a.546.546 0 0 1 .754-.253l1.418-2.644a3.546 3.546 0 0 0-4.896 1.64l2.724 1.257Zm-5.818 12.621 5.818-12.621-2.724-1.256-5.818 12.621 2.724 1.256Zm-6.065-.425c1.44 0 2.784.396 3.932 1.084l1.542-2.573a10.622 10.622 0 0 0-5.474-1.51v3Zm-4.9 1.771a7.627 7.627 0 0 1 4.9-1.77v-3c-2.593 0-4.972.926-6.82 2.465l1.92 2.305Zm-2.862-4.109.414 3.152 2.975-.391-.414-3.152-2.975.391Zm.354.611a.919.919 0 0 1-.354-.61l2.975-.392a2.082 2.082 0 0 0-.803-1.384l-1.818 2.386Zm.684.18a.918.918 0 0 1-.684-.18l1.818-2.386a2.082 2.082 0 0 0-1.548-.406l.414 2.971Zm-10.182 1.416 10.182-1.416-.414-2.972-10.181 1.417.413 2.971Zm.61-.36a.918.918 0 0 1-.61.36l-.413-2.971a2.081 2.081 0 0 0-1.383.818l2.406 1.792Zm.172-.689a.92.92 0 0 1-.172.688l-2.406-1.792a2.081 2.081 0 0 0-.388 1.559l2.966-.455Zm.448 2.926-.448-2.926-2.966.455.449 2.925 2.965-.454Zm-3.127 2.155 1.988-.468-.687-2.92-1.988.468.687 2.92Zm.574-.416a.919.919 0 0 1-.574.416l-.687-2.92a2.08 2.08 0 0 0-1.3.942l2.561 1.562Zm.107-.701a.918.918 0 0 1-.107.7l-2.561-1.56a2.081 2.081 0 0 0-.242 1.587l2.91-.727Zm1.11 4.442-1.11-4.442-2.91.727 1.11 4.443 2.91-.728Zm-2.441 1.864h.987v-3h-.987v3Zm.628-.628a.628.628 0 0 1-.628.628v-3a2.372 2.372 0 0 0-2.372 2.372h3Zm1.75 9.381c-1.442-2.559-1.75-5.766-1.75-9.381h-3c0 3.672.284 7.567 2.135 10.853l2.614-1.472Zm8.112 5.395c-4.352-1.074-6.758-2.99-8.113-5.395L9.94 40.975c1.848 3.282 5.043 5.61 10.008 6.836l.72-2.913Zm1.14 2.32v-.863h-3v.862h3Zm.991 1.187c-.563-.077-.99-.566-.99-1.188h-3c0 2.004 1.42 3.863 3.581 4.16l.41-2.972Zm7.346.449c-3.4 0-5.893-.249-7.346-.449l-.409 2.972c1.579.217 4.208.477 7.755.477v-3Zm7.093-.439c-1.378.198-3.745.439-7.093.439v3c3.492 0 6.002-.252 7.518-.47l-.425-2.969Zm.957-1.165c0 .613-.413 1.087-.957 1.165l.425 2.97c2.155-.31 3.532-2.168 3.532-4.135h-3Zm0-.895v.895h3v-.895h-3Zm9.254-6.852c-1.355 2.406-3.76 4.321-8.113 5.395l.719 2.913c4.965-1.226 8.16-3.554 10.008-6.836l-2.614-1.472Zm1.75-9.381c0 3.615-.309 6.822-1.75 9.381l2.614 1.472c1.85-3.286 2.135-7.181 2.135-10.853h-3Zm.627.628a.628.628 0 0 1-.628-.628h3a2.372 2.372 0 0 0-2.372-2.372v3Zm-.566 0h.566v-3h-.566v3Zm-1.495-1.81c0 .087-.001.174-.004.26l2.998.1c.004-.12.006-.24.006-.36h-3Zm-4.523-7.056a7.763 7.763 0 0 1 4.523 7.055h3c0-4.342-2.572-8.08-6.27-9.781l-1.253 2.726Zm4.604-7.749-5.067 5.355 2.18 2.062 5.066-5.355-2.179-2.062Zm-.026-.657a.46.46 0 0 1 .026.657l2.18 2.062a3.46 3.46 0 0 0-.194-4.945l-2.011 2.226Zm-.655.04a.46.46 0 0 1 .656-.04l2.01-2.226a3.46 3.46 0 0 0-4.932.3l2.266 1.966Zm-6.2 7.145 6.2-7.145-2.266-1.966-6.2 7.145 2.267 1.966Zm-1.674.548c.188-.017.377-.028.569-.031l-.054-3c-.265.005-.527.02-.787.043l.272 2.988Zm7.118 7.729c0 .084-.002.168-.005.252l2.998.116c.004-.122.007-.245.007-.369h-3Zm-4.08-5.97a6.407 6.407 0 0 1 4.08 5.97h3c0-3.992-2.487-7.4-5.99-8.766l-1.09 2.796Zm.31 1.033 1.325-1.4-2.18-2.062-1.324 1.4 2.178 2.062Zm1.328-1.579a8.104 8.104 0 0 0-1.992-.89l-.852 2.877c.446.131.872.319 1.253.557l1.59-2.544Zm2.95 4.182c-.372-1.94-1.577-3.323-2.95-4.182l-1.59 2.544c.82.513 1.41 1.246 1.594 2.203l2.946-.565Zm.088 2.829a9.118 9.118 0 0 0-.088-2.829l-2.946.565a6.12 6.12 0 0 1 .056 1.894l2.978.37Zm-1.489 1.315h2.387v-3h-2.387v3Zm2.123-1.256h-2.554v3h2.554v-3Zm-1.449 1.111a6.408 6.408 0 0 1-6.186 4.74v3c4.35 0 8.008-2.954 9.084-6.962l-2.898-.778Zm-6.186 4.74a6.369 6.369 0 0 1-3.162-.834l-1.483 2.607a9.368 9.368 0 0 0 4.645 1.226v-3Zm-2.844 1.532a10.702 10.702 0 0 0 1.591-2.024l-2.564-1.557a7.708 7.708 0 0 1-1.145 1.456l2.118 2.125Zm-.445-1.506c.911.53 1.981.84 3.172.84v-3a3.254 3.254 0 0 1-1.664-.433l-1.508 2.593Zm3.172.84c2.765 0 4.797-1.443 5.963-3.373l-2.568-1.55c-.69 1.141-1.804 1.923-3.395 1.923v3Zm5.963-3.373c.253-.418.464-.858.636-1.309l-2.802-1.07a5.168 5.168 0 0 1-.402.829l2.568 1.55Zm-2.83-5.484c.102.536.115 1.115.034 1.684l2.97.424a8.158 8.158 0 0 0-.058-2.673l-2.947.565ZM41.86 25.79c.64.4 1.033.923 1.156 1.564l2.947-.565c-.312-1.623-1.317-2.796-2.513-3.543l-1.59 2.544Zm-1.383-.543a4.28 4.28 0 0 1 1.383.543l1.59-2.544a7.28 7.28 0 0 0-2.36-.936l-.613 2.937Zm-.25 1.302 1.646-1.74-2.18-2.062-1.646 1.74 2.18 2.062Zm-.828-2.524a8.37 8.37 0 0 0-.239-.007l-.046 3c.049 0 .099.002.15.004l.135-2.997Zm3.382 1.286c-.877-.803-2.045-1.225-3.382-1.286l-.135 2.997c.785.036 1.234.266 1.49.501l2.027-2.212Zm1.404 2.793c-.112-.97-.533-1.995-1.404-2.793l-2.026 2.212c.26.238.407.558.45.927l2.98-.346Zm-.035 1.391c.074-.448.09-.919.035-1.391l-2.98.346a2 2 0 0 1-.015.555l2.96.49Zm-1.48 1.255h1.866v-3H42.67v3Zm1.362-1.256h-2.241v3h2.241v-3Zm-1.364.878c-.067.145-.14.284-.219.415l2.569 1.55c.14-.233.267-.474.38-.72l-2.73-1.245Zm-.219.415c-.534.885-1.352 1.455-2.565 1.455v3c2.385 0 4.121-1.228 5.134-2.905l-2.569-1.55Zm-2.565 1.455c-.471 0-.865-.122-1.194-.316l-1.527 2.582a5.303 5.303 0 0 0 2.721.734v-3Zm-.6 1.613c.382-.812.664-1.68.831-2.59l-2.95-.543a7.6 7.6 0 0 1-.596 1.857l2.715 1.276Zm-.314-4.36h-.33v3h.33v-3Zm-.99 2.625a3.623 3.623 0 0 0 3.607.714l-.971-2.838a.64.64 0 0 1-.362.027.68.68 0 0 1-.293-.155L37.98 32.12Zm3.607.714a3.436 3.436 0 0 0 1.224-.74l-2.041-2.2a.444.444 0 0 1-.154.102l.97 2.838Zm-2.3-2.084h2.396v-3h-2.396v3Zm1.328-.802a.852.852 0 0 1-.309.339l-1.506-2.595a2.158 2.158 0 0 0-.841.86l2.656 1.396Zm-.309.339a1.985 1.985 0 0 0 .72-2.713l-2.595 1.506a1.016 1.016 0 0 1 .369-1.388l1.506 2.595Zm.72-2.713a1.984 1.984 0 0 0-2.713-.72l1.507 2.595a1.016 1.016 0 0 1-1.389-.369l2.595-1.506Zm-2.713-.72c-.213.124-.411.27-.59.437l2.044 2.195a.294.294 0 0 1 .053-.037l-1.507-2.595Zm1.924 1.383a10.628 10.628 0 0 0-.449-2.16l-2.858.913a7.62 7.62 0 0 1 .322 1.55l2.985-.303Zm-1.66-.22a3.37 3.37 0 0 1 .643-.027l.136-2.997c-.426-.019-.831 0-1.216.056l.438 2.968Zm.643-.027c.605.028.823.196.88.248l2.026-2.213c-.675-.619-1.611-.98-2.77-1.032l-.136 2.997Zm.88.248c.063.057.123.151.143.323l2.98-.346c-.09-.776-.423-1.573-1.096-2.19l-2.026 2.213Zm.143.323c.013.11.005.233-.022.352l2.923.674c.1-.433.133-.9.079-1.372l-2.98.346Zm-4.371 2.189h1.757v-3h-1.757v3Zm-.497-4.222c-.632.758-.941 1.694-1 2.628l2.994.188c.026-.414.155-.709.31-.894l-2.304-1.922Zm1.129-.935c-.45.253-.826.572-1.129.935l2.304 1.922c.073-.088.167-.17.294-.241l-1.469-2.616Zm.639-.19-.017.002.225 2.991h.017l-.225-2.992Zm1.986 3.833a9.493 9.493 0 0 0-.444-2.79l-2.86.908a6.49 6.49 0 0 1 .304 1.91l3-.028Zm-1.674.258h-1.322v3h1.322v-3Zm.922 3.541c.234-.551.418-1.13.545-1.73l-2.935-.622a6.44 6.44 0 0 1-.372 1.18l2.762 1.172Zm-3.654-1.531c.253.702.64 1.37 1.156 1.946l2.234-2.001a2.957 2.957 0 0 1-.57-.965l-2.82 1.02Zm-1.73-3.117c.14.334.223.665.25.986l2.99-.246a6.259 6.259 0 0 0-.471-1.896l-2.768 1.156Zm-1.186-1.643c.529.483.941 1.055 1.187 1.643l2.768-1.156c-.432-1.036-1.119-1.96-1.933-2.703l-2.022 2.216Zm1.872 1.164a6.35 6.35 0 0 1 .501-1.644l-2.725-1.255c-.349.758-.6 1.57-.738 2.42l2.962.479Zm.103-.535a4.847 4.847 0 0 0-.379-.597l-2.41 1.785c.056.076.104.152.144.227l2.645-1.415Zm.503 1.848a4.117 4.117 0 0 0-.503-1.848l-2.645 1.415c.106.199.147.372.15.49l2.998-.056Zm-1.5 1.529h1.952v-3h-1.951v3Zm1.725-1.256h-2.144v3h2.144v-3Zm-1.413.997c-.094.263-.237.54-.446.825l2.42 1.773c.372-.508.656-1.041.852-1.592l-2.826-1.006Zm-.446.825a2.45 2.45 0 0 1-.425.452l1.9 2.322c.347-.284.665-.618.945-1.001l-2.42-1.773Zm1.819.855a6.357 6.357 0 0 1-.655-1.566l-2.898.778a9.36 9.36 0 0 0 .964 2.304l2.589-1.516Zm-3.79-4.035a1.982 1.982 0 0 0-1.12-.5l-.317 2.984a1.018 1.018 0 0 1-.573-.256l2.01-2.228Zm-1.12-.5a1.983 1.983 0 0 0-1.537.5l2.006 2.229a1.017 1.017 0 0 1-.786.255l.317-2.983Zm-2.454 3.114h1.92v-3h-1.92v3Zm1.34-.829c.086-.17.208-.364.383-.582l-2.337-1.88c-.295.366-.537.74-.728 1.12l2.683 1.342Zm.383-.582c.38-.472.644-.548.72-.564l-.587-2.941c-.9.18-1.743.72-2.47 1.625l2.337 1.88Zm.72-.563c.084-.017.194-.01.345.076l1.482-2.609c-.68-.386-1.52-.588-2.414-.41l.587 2.943Zm.345.076a.93.93 0 0 1 .074.046l1.717-2.46a3.954 3.954 0 0 0-.309-.195l-1.482 2.609Zm-.554-1.388c-.066.483-.1.976-.1 1.476h3c0-.363.025-.72.072-1.068l-2.972-.408Zm-.1 1.476c0 .12.002.24.006.36l2.998-.1a7.804 7.804 0 0 1-.004-.26h-3Zm.434 1.81h1.071v-3h-1.07v3Zm-.216-1.256H26.79v3h2.67v-3Zm-.913 2.69c.58.445 1.259.644 1.88.679l.166-2.996a.416.416 0 0 1-.22-.063l-1.826 2.38Zm1.88.679c.302.017.61-.005.912-.063l-.573-2.945a.7.7 0 0 1-.173.012l-.167 2.996Zm-.824-1.15c.248.93.617 1.811 1.088 2.624l2.595-1.507a7.703 7.703 0 0 1-.784-1.889l-2.899.772Zm1.911.448c-.727.242-1.604.134-2.315-.273l-1.49 2.604c1.372.785 3.132 1.056 4.754.514l-.949-2.845Zm-2.315-.273c-.558-.32-.83-.718-.908-1.033l-2.912.722c.32 1.287 1.237 2.29 2.33 2.915l1.49-2.604Zm-.908-1.033a.978.978 0 0 1-.017-.089l-2.966.456c.019.12.043.239.072.355l2.911-.722Zm-2.552-4.003a6.877 6.877 0 0 0-1.09 1.867l2.805 1.062c.12-.317.317-.67.622-1.049l-2.337-1.88Zm3.035-1.969c-1.166.233-2.197.926-3.035 1.969l2.337 1.88c.493-.612.944-.838 1.285-.907l-.587-2.942Zm2.951.446a4.434 4.434 0 0 0-2.951-.446l.587 2.942c.329-.065.656-.005.965.157l1.4-2.653Zm-1.358-1.184a10.7 10.7 0 0 0-.795 2.142l2.908.737c.136-.538.329-1.054.572-1.54l-2.685-1.339Zm.194 1.756c.13.061.258.13.386.205l1.525-2.584a7.833 7.833 0 0 0-.626-.332L30.56 25.9Zm-1.945.009c.702-.28 1.355-.289 1.945-.01l1.285-2.71c-1.492-.708-3.033-.59-4.342-.067l1.111 2.787Zm-1.846 1.444a4.417 4.417 0 0 1 1.846-1.444l-1.112-2.787c-1.295.517-2.41 1.443-3.154 2.458l2.42 1.773Zm-2.774.428a1.984 1.984 0 0 0 2.774-.428l-2.42-1.773c.331-.453.966-.55 1.419-.22l-1.773 2.42Zm-.428-2.774a1.984 1.984 0 0 0 .428 2.774l1.773-2.42c.452.331.55.967.22 1.42l-2.421-1.774Zm3.576-2.785c-1.476.59-2.734 1.636-3.576 2.785l2.42 1.773a5.384 5.384 0 0 1 2.268-1.771l-1.112-2.787Zm5.117.091c-1.785-.846-3.613-.69-5.117-.09l1.112 2.786c.9-.36 1.84-.402 2.72.015l1.285-2.71Zm.685.363a8.82 8.82 0 0 0-.685-.363l-1.285 2.711c.152.072.302.152.45.24l1.52-2.588Zm-.48-1.419a10.806 10.806 0 0 0-1.545 1.907l2.53 1.611a7.81 7.81 0 0 1 1.117-1.377l-2.102-2.14Zm-2.836 1.565c1.149 0 2.224.296 3.157.816l1.46-2.62a9.465 9.465 0 0 0-4.617-1.196v3Zm-4.612 1.918a6.477 6.477 0 0 1 4.612-1.918v-3a9.477 9.477 0 0 0-6.74 2.804l2.128 2.114Zm1.155 4.314-.732-5.567-2.974.391.732 5.566 2.974-.39Zm-1.487 1.695h1.365v-3h-1.365v3Zm1.128-1.256h-.9v3h.9v-3Zm-1.491 1.665c.024.22.063.438.116.651l2.912-.722a1.985 1.985 0 0 1-.046-.259l-2.982.33Zm.116.651c.398 1.603 1.525 2.8 2.79 3.523l1.49-2.604c-.733-.419-1.212-1.013-1.368-1.641l-2.912.722Zm2.79 3.523c1.647.943 3.855 1.266 5.854.483l-1.094-2.794c-1.05.411-2.31.257-3.27-.293l-1.49 2.604Zm4.098-.026a10.814 10.814 0 0 0 1.728 1.85l1.938-2.29a7.816 7.816 0 0 1-1.248-1.337l-2.418 1.777Zm1.872-.548a6.464 6.464 0 0 1-3.57 1.067v3c1.926 0 3.721-.574 5.22-1.56l-1.65-2.507Zm-3.57 1.067a6.499 6.499 0 0 1-5.656-3.294l-2.608 1.483a9.499 9.499 0 0 0 8.265 4.81v-3Zm-6.707-1.074 1.938-.331-.506-2.957-1.938.33.506 2.958Zm1.938-.331a2.081 2.081 0 0 0 1.713-2.323l-2.975.39a.919.919 0 0 1 .756-1.024l.506 2.957Zm1.713-2.323-.17-1.3-2.975.392.17 1.299 2.975-.391Zm-12.23 3.687-1.288-5.155-2.91.728 1.288 5.154 2.91-.727Zm-.425-.57c.213.126.366.33.425.57l-2.91.727c.135.542.483 1.006.964 1.29l1.521-2.586Zm-.704-.095a.919.919 0 0 1 .704.096L12.396 37.8a2.082 2.082 0 0 0 1.595.217l-.778-2.898Zm8.303-2.227-8.303 2.227.778 2.898 8.303-2.228-.778-2.898Zm-.068.02a.877.877 0 0 1 .068-.02l.778 2.897c.054-.014.106-.03.157-.05l-1.003-2.826Zm8.18 4.076a7.656 7.656 0 0 1-6.422-3.482l-2.513 1.64a10.656 10.656 0 0 0 8.936 4.842v-3Zm4.501-1.46a7.623 7.623 0 0 1-4.5 1.46v3c2.338 0 4.505-.755 6.264-2.034L34.13 35.53Zm5.873 1.172a7.718 7.718 0 0 1-4.181-1.222l-1.62 2.526a10.718 10.718 0 0 0 5.801 1.696v-3Zm7.489-5.715a7.765 7.765 0 0 1-7.489 5.715v3c4.963 0 9.138-3.36 10.383-7.925l-2.894-.79Zm1.05 9.134c1.427-2.534 1.82-5.55 1.896-8.703l-2.999-.072c-.072 3.02-.455 5.427-1.51 7.302l2.613 1.473Zm-9.586 6.156c5.024-1.096 7.95-3.252 9.586-6.156l-2.614-1.473c-1.115 1.98-3.2 3.735-7.611 4.698l.64 2.93Zm.494-.614c0 .295-.206.55-.494.614l-.64-2.931a2.372 2.372 0 0 0-1.866 2.317h3Zm0 1.588v-1.588h-3v1.588h3Zm-2.035 2.408c1.205-.172 2.035-1.214 2.035-2.408h-3c0-.09.033-.218.132-.336a.653.653 0 0 1 .407-.225l.426 2.97Zm-7.27.452c3.407 0 5.834-.246 7.27-.452l-.426-2.97c-1.297.187-3.581.422-6.845.422v3Zm-7.518-.46c1.506.206 4.055.46 7.517.46v-3c-3.316 0-5.728-.243-7.108-.433l-.409 2.972Zm-2.075-2.433c0 1.212.854 2.264 2.075 2.432l.409-2.972a.58.58 0 0 1 .516.54h-3Zm0-1.555v1.555h3v-1.555h-3Zm.494.614a.628.628 0 0 1-.494-.614h3c0-1.115-.777-2.08-1.867-2.317l-.64 2.93Zm-9.586-6.156c1.636 2.904 4.562 5.06 9.586 6.156l.64-2.931c-4.412-.963-6.497-2.718-7.612-4.698l-2.614 1.473Zm-1.904-9.102c.052 3.302.419 6.465 1.904 9.102l2.614-1.473c-1.102-1.956-1.468-4.485-1.519-7.677l-3 .048Zm2.044-1.524h-.544v3h.544v-3Zm24.838-5.876a6.39 6.39 0 0 1 .992-.546l-1.206-2.747a9.39 9.39 0 0 0-1.459.803l1.673 2.49Zm.83-1.735c-.22-.226-.45-.442-.689-.648l-1.956 2.275c.173.148.338.304.497.466l2.148-2.093Zm-1.775-.87-.633 1.23 2.668 1.373.633-1.231-2.668-1.372Zm-2.946 2.193a9.421 9.421 0 0 0-.527.76l2.545 1.589a6.4 6.4 0 0 1 .36-.518l-2.378-1.83Zm2.676.43a.21.21 0 0 1-.111-.112l-2.752 1.195a3.21 3.21 0 0 0 1.652 1.662l1.21-2.745Zm.11.017a.21.21 0 0 1-.11-.017l-1.21 2.745a3.21 3.21 0 0 0 1.666.252l-.345-2.98Zm1.713 1.722a.124.124 0 0 1-.045-.109l-2.99-.246a3.124 3.124 0 0 0 1.14 2.682l1.895-2.327Zm-.11 2.454c.056-.066.116-.129.18-.187l-2.034-2.207c-.16.148-.31.306-.449.472l2.304 1.922Zm-.266.41c.075-.149.163-.286.267-.41l-2.303-1.922c-.26.31-.475.645-.649.993l2.685 1.338Zm-2.78-.226.04.102 2.795-1.09a7.28 7.28 0 0 0-.067-.167l-2.768 1.155ZM32.315 25.9c.694.595 1.247 1.33 1.574 2.114l2.768-1.156c-.526-1.262-1.379-2.37-2.39-3.236L32.315 25.9Zm5.265 6.39a3.911 3.911 0 0 1-.872-1.293l-2.767 1.16a6.909 6.909 0 0 0 1.55 2.287l2.089-2.154Zm-1.439 3.953a9.538 9.538 0 0 0 1.688-2.117l-2.587-1.518a6.539 6.539 0 0 1-1.157 1.45l2.056 2.185Zm-3.612-1.593a9.45 9.45 0 0 0 1.655 1.679l1.857-2.356a6.448 6.448 0 0 1-1.13-1.146L32.53 34.65Zm.905-2.761c-.2.272-.417.494-.643.673l1.86 2.354c.441-.35.846-.767 1.203-1.255l-2.42-1.773ZM33.94 31c-.121.29-.286.587-.506.887l2.42 1.773c.355-.485.64-.99.856-1.508L33.94 31Zm6.388-9.783a8.02 8.02 0 0 0-.723-.033v3c.146 0 .297.007.452.02l.271-2.987Zm.205-1.048-1.43 1.51 2.18 2.063 1.429-1.51-2.18-2.063Zm-.376 2.367c.398.01.785.055 1.16.133l.611-2.937a9.43 9.43 0 0 0-1.7-.195l-.07 2.999Zm-1.701 2.79 2.87-3.307-2.266-1.966-2.87 3.307 2.266 1.966Zm.707-.784c-.175-.35-.37-.688-.581-1.015l-2.517 1.633c.152.234.291.477.417.729l2.681-1.347Zm-.89-1.985-1.54 1.627 2.18 2.062 1.54-1.627-2.18-2.062Zm-.653.611c0 .737.402 1.378.992 1.718l1.502-2.596c.3.173.506.5.506.878h-3Zm1.985-1.984a1.984 1.984 0 0 0-1.985 1.984h3c0 .561-.454 1.016-1.015 1.016v-3ZM47 13.335l-5.4 5.708 2.178 2.062 5.4-5.707L47 13.336Zm.04 1.006a.703.703 0 0 1-.04-1.005l2.179 2.062a2.297 2.297 0 0 0-.129-3.283l-2.01 2.226Zm1.002-.061a.703.703 0 0 1-1.003.06l2.011-2.225a2.297 2.297 0 0 0-3.274.199l2.265 1.966Zm-5.615 6.47 5.614-6.47-2.265-1.966-5.615 6.47 2.266 1.967Zm.696-2.112a10.702 10.702 0 0 0-1.622-.356l-.414 2.971c.4.056.79.142 1.167.257l.87-2.872Zm-3.777 3.89.325-.375-2.266-1.966-.325.375 2.266 1.966Zm-2.29-2.015-.177.346 2.668 1.372.177-.346-2.667-1.372Zm1.206-.817c-.059.01-.117.022-.176.034l.609 2.938.119-.023-.552-2.95Zm-4.431 4.667c.214.182.417.377.606.585l2.218-2.02a9.552 9.552 0 0 0-.884-.853l-1.94 2.288Zm1.86-1.791c.477.21.692.765.487 1.24l-2.755-1.187a2.054 2.054 0 0 0 1.058 2.692l1.21-2.745Zm-.786.01a.947.947 0 0 1 .786-.01l-1.21 2.745c.566.25 1.188.222 1.706-.023l-1.282-2.712Z" fill="#F8F9FA" mask="url(#a)"/><path d="m34.278 23.023 6.4-13.884a1.465 1.465 0 1 1 2.633 1.284l-6.993 13.594a1.135 1.135 0 0 1-2.04-.994ZM36.337 24.655l10.132-11.679a1.378 1.378 0 1 1 2.043 1.851l-10.627 11.23a1.045 1.045 0 0 1-1.548-1.402Z" fill="#FFEC99" stroke="#212529" stroke-width="1.2" stroke-linecap="round" stroke-linejoin="round"/><circle cx="29.629" cy="29.385" r="8.583" fill="#FFA8A8" stroke="#212529" stroke-width="1.2" stroke-linecap="round" stroke-linejoin="round"/><path opacity=".7" d="M25.168 26.24c1.28-1.748 3.868-3.198 6.242-2.073 2.968 1.407 5.193 5.173 2.843 8.381-3.08 4.206-10.703.25-6.97-4.393 2.439-3.03 5.488-.088 4.96 1.606-.53 1.694-3.06 1.484-2.892-.091" stroke="#fff" stroke-linecap="round"/><path fill-rule="evenodd" clip-rule="evenodd" d="M37.262 21.037a7.262 7.262 0 1 0 1.606 14.346 7.08 7.08 0 1 1 .652-13.988 7.257 7.257 0 0 0-2.258-.358Z" fill="#FFA8A8" style="mix-blend-mode:multiply" opacity=".5"/><circle cx="40.002" cy="29" r="8.583" fill="#FFA8A8" stroke="#212529" stroke-width="1.4" stroke-linecap="round" stroke-linejoin="round"/><path fill-rule="evenodd" clip-rule="evenodd" d="M40.618 35.562a7.262 7.262 0 1 0-1.607-14.346 7.08 7.08 0 1 1-.65 13.988c.71.232 1.469.358 2.257.358Z" fill="#FFA8A8" style="mix-blend-mode:multiply" opacity=".5"/><path opacity=".7" d="M39.605 23.23c2.167 0 4.866 1.23 5.361 3.81.619 3.226-1.104 7.246-5.081 7.246-5.214 0-6.527-8.487-.574-8.218 3.886.176 3.313 4.374 1.634 4.949-1.678.574-3.004-1.591-1.634-2.386" stroke="#fff" stroke-linecap="round"/><path d="M22.778 19.263 12.597 20.68l2.06 13.434 9.851-1.684-1.73-13.167Z" fill="#495057" stroke="#212529" stroke-width="1.2" stroke-linecap="round" stroke-linejoin="round"/><path d="m19.223 22.702-8.607 2.025 2.835 11.341 8.303-2.227-2.531-11.139Z" fill="#495057" stroke="#212529" stroke-width="1.2" stroke-linecap="round" stroke-linejoin="round"/><path fill-rule="evenodd" clip-rule="evenodd" d="M40.034 26.402c1.062-.571 2.463-1.324 3.986-1.042a2.8 2.8 0 0 1 1.917 1.296c.39.631.527 1.376.5 2.08-.052 1.375-.75 2.933-2.075 3.74-.666.405-1.552.63-2.483.742-.952.113-2.04.116-3.176.016-2.263-.2-4.81-.82-6.941-1.908-1.927-.984-4.902-2.162-7.76-2.83-1.429-.334-2.792-.532-3.96-.529-1.189.004-2.055.216-2.597.583-.499.337-.69.634-.765.84-.072.2-.072.42.016.682.193.58.757 1.187 1.283 1.566a1.012 1.012 0 1 1-1.184 1.642c-.69-.498-1.635-1.416-2.02-2.567-.2-.603-.256-1.3.001-2.012.256-.706.78-1.317 1.535-1.828 1.026-.693 2.364-.926 3.724-.93 1.38-.004 2.91.227 4.428.582 3.034.71 6.162 1.948 8.22 2.998 1.853.946 4.138 1.513 6.198 1.695 1.026.09 1.972.083 2.759-.01.806-.096 1.361-.274 1.67-.461.625-.38 1.072-1.238 1.104-2.088.016-.41-.07-.73-.199-.938-.114-.184-.28-.318-.563-.37-.733-.136-1.509.216-2.728.87l-.154.084c-1.062.572-2.442 1.316-4.003 1.266a1.012 1.012 0 0 1 .066-2.023c.99.032 1.926-.461 3.133-1.11l.068-.036Z" fill="#FFEC99" stroke="#212529" stroke-linecap="round" stroke-linejoin="round"/><path fill-rule="evenodd" clip-rule="evenodd" d="M23.893 34.04c-1.062.571-2.463 1.324-3.986 1.042a2.8 2.8 0 0 1-1.916-1.296c-.39-.631-.527-1.375-.5-2.08.052-1.374.75-2.933 2.074-3.74.666-.405 1.552-.63 2.484-.741.951-.113 2.04-.117 3.175-.017 2.263.2 4.81.82 6.942 1.909 1.927.984 4.902 2.161 7.76 2.83 1.428.334 2.791.532 3.96.528 1.188-.004 2.054-.216 2.597-.583.498-.337.69-.633.764-.839.073-.2.072-.42-.016-.683-.193-.58-.757-1.187-1.282-1.565a1.012 1.012 0 0 1 1.184-1.642c.69.497 1.634 1.415 2.019 2.566.201.604.256 1.3 0 2.012-.256.707-.78 1.318-1.536 1.828-1.026.694-2.364.926-3.724.93-1.38.005-2.91-.227-4.427-.581-3.034-.71-6.163-1.948-8.22-2.998-1.854-.947-4.138-1.513-6.199-1.695-1.026-.09-1.972-.084-2.758.01-.807.096-1.362.273-1.67.46-.625.381-1.072 1.239-1.105 2.089-.015.409.07.73.2.938.113.184.279.317.563.37.733.136 1.508-.217 2.727-.871l.154-.083c1.063-.573 2.442-1.317 4.003-1.266a1.012 1.012 0 0 1-.065 2.023c-.99-.032-1.926.46-3.134 1.109l-.068.037Z" fill="#FFEC99" stroke="#212529" stroke-linecap="round" stroke-linejoin="round"/><path fill-rule="evenodd" clip-rule="evenodd" d="M16.196 34.459c-1.062.57-2.463 1.323-3.986 1.041a2.8 2.8 0 0 1-1.916-1.296c-.39-.631-.527-1.375-.5-2.08.052-1.374.75-2.933 2.074-3.74.666-.405 1.553-.63 2.484-.741.951-.113 2.04-.117 3.175-.017 2.263.2 4.81.82 6.941 1.909 1.928.984 4.903 2.161 7.76 2.83 1.43.334 2.792.532 3.96.528 1.19-.004 2.055-.216 2.598-.583.498-.337.69-.633.764-.84.073-.2.072-.42-.015-.681-.194-.58-.758-1.188-1.283-1.566a1.012 1.012 0 0 1 1.183-1.642c.69.497 1.635 1.415 2.02 2.566.201.604.256 1.3 0 2.012-.256.706-.78 1.318-1.536 1.828-1.026.694-2.364.926-3.724.93-1.38.005-2.91-.227-4.427-.581-3.034-.71-6.163-1.948-8.22-2.998-1.854-.947-4.138-1.513-6.199-1.695-1.026-.09-1.972-.084-2.758.01-.807.096-1.362.273-1.67.46-.625.381-1.072 1.239-1.105 2.089-.015.409.07.73.2.938.113.184.279.317.563.37.733.136 1.508-.217 2.727-.871l.155-.083c1.062-.573 2.441-1.317 4.002-1.266a1.012 1.012 0 0 1-.065 2.023c-.99-.032-1.926.46-3.134 1.109l-.068.037Z" fill="#FFEC99" stroke="#212529" stroke-linecap="round" stroke-linejoin="round"/><path d="M33.678 32.1c-.885.477-2.053 1.105-3.323.87a2.335 2.335 0 0 1-1.598-1.081c-.326-.527-.44-1.147-.417-1.734.043-1.147.625-2.446 1.73-3.119.555-.338 1.294-.526 2.07-.618.794-.095 1.702-.097 2.648-.014 1.887.167 4.011.684 5.788 1.591 1.607.82 4.087 1.803 6.47 2.36l-.384 1.643c-2.53-.591-5.138-1.624-6.854-2.5-1.545-.789-3.45-1.26-5.168-1.413-.856-.075-1.645-.07-2.3.009-.673.08-1.136.228-1.393.384-.52.317-.894 1.032-.92 1.741-.014.34.058.608.165.782a.65.65 0 0 0 .47.309c.611.113 1.258-.18 2.275-.727l.128-.069c.886-.477 2.036-1.098 3.337-1.055a.844.844 0 0 1-.054 1.686c-.826-.026-1.606.385-2.613.925l-.057.03Z" fill="#FFEC99" stroke="#212529" stroke-linecap="round" stroke-linejoin="round"/><path fill-rule="evenodd" clip-rule="evenodd" d="M38.821 45.723c9.79-2.136 11.003-8.286 11.003-15.54H10.176c0 7.254 1.212 13.404 11.003 15.54v1.505c0 .938.652 1.74 1.581 1.866 1.486.203 3.989.448 7.383.448 3.34 0 5.72-.237 7.134-.438.913-.13 1.544-.92 1.544-1.842v-1.54Z" fill="#F1F3F5"/><path d="m38.821 45.723-.191-.88a.9.9 0 0 0-.709.88h.9Zm11.003-15.54h.9a.9.9 0 0 0-.9-.9v.9Zm-39.648 0v-.9a.9.9 0 0 0-.9.9h.9Zm11.003 15.54h.9a.9.9 0 0 0-.708-.88l-.192.88Zm1.581 3.371-.122.892.122-.892Zm14.517.01.126.891-.126-.89Zm1.736-2.502c5.079-1.108 8.082-3.3 9.765-6.288 1.65-2.93 1.946-6.487 1.946-10.131h-1.8c0 3.61-.31 6.754-1.714 9.247-1.37 2.434-3.868 4.386-8.58 5.413l.383 1.759Zm10.811-17.32H10.176v1.8h39.648v-1.8Zm-40.548.9c0 3.645.296 7.202 1.946 10.132 1.683 2.989 4.687 5.18 9.765 6.288l.384-1.759c-4.712-1.028-7.21-2.979-8.58-5.413-1.405-2.493-1.715-5.637-1.715-9.247h-1.8Zm12.803 17.046v-1.505h-1.8v1.505h1.8Zm.802.975c-.45-.062-.802-.454-.802-.975h-1.8c0 1.354.952 2.566 2.36 2.758l.242-1.783Zm7.262.44c-3.35 0-5.813-.243-7.262-.44l-.242 1.783c1.523.208 4.066.456 7.504.456v-1.8Zm7.008-.43c-1.372.195-3.711.43-7.008.43v1.8c3.383 0 5.806-.241 7.26-.448l-.252-1.782Zm.77-.951c0 .513-.34.89-.77.951l.252 1.782c1.395-.197 2.318-1.402 2.318-2.733h-1.8Zm0-1.54v1.54h1.8v-1.54h-1.8Z" fill="#212529"/><path d="M18.292 41.711c-.983.536-2.583-.642-3.439-1.92-1.016-1.519-1.578-3.617-1.578-4.045 0-.536 1.414-.007 3.125 2.976.687 1.199 2.874 2.453 1.892 2.99Z" fill="#F8F9FA" style="mix-blend-mode:soft-light" opacity=".8"/><path fill-rule="evenodd" clip-rule="evenodd" d="M11.286 31.058H46.52c0 5.795-.478 10.84-6.502 13.45 8.477-2.213 9.084-7.793 9.084-14.325H11.281c0 .294.001.585.005.875Z" fill="#E9ECEF" style="mix-blend-mode:multiply"/></svg>